<svg xmlns="http://www.w3.org/2000/svg" xmlns:xlink="http://www.w3.org/1999/xlink" width="500" zoomAndPan="magnify" viewBox="0 0 375 374.999991" height="500" preserveAspectRatio="xMidYMid meet" version="1.0"><defs><g/><clipPath id="6c3dc31b6b"><path d="M 193 119.898438 L 200 119.898438 L 200 126 L 193 126 Z M 193 119.898438 " clip-rule="nonzero"/></clipPath><clipPath id="d93ee2a6b5"><path d="M 252 178 L 258.351562 178 L 258.351562 185 L 252 185 Z M 252 178 " clip-rule="nonzero"/></clipPath><clipPath id="2527989f81"><path d="M 252 182 L 258.351562 182 L 258.351562 190 L 252 190 Z M 252 182 " clip-rule="nonzero"/></clipPath><clipPath id="2abe805b45"><path d="M 252 192 L 258.351562 192 L 258.351562 199 L 252 199 Z M 252 192 " clip-rule="nonzero"/></clipPath><clipPath id="21c8f590fa"><path d="M 252 196 L 258.351562 196 L 258.351562 204 L 252 204 Z M 252 196 " clip-rule="nonzero"/></clipPath><clipPath id="70d33cb7f9"><path d="M 193 255 L 200 255 L 200 261.648438 L 193 261.648438 Z M 193 255 " clip-rule="nonzero"/></clipPath><clipPath id="8aa3eface8"><path d="M 189 255 L 196 255 L 196 261.648438 L 189 261.648438 Z M 189 255 " clip-rule="nonzero"/></clipPath><clipPath id="2a267812e3"><path d="M 179 255 L 186 255 L 186 261.648438 L 179 261.648438 Z M 179 255 " clip-rule="nonzero"/></clipPath><clipPath id="6e43eec0e7"><path d="M 174 255 L 182 255 L 182 261.648438 L 174 261.648438 Z M 174 255 " clip-rule="nonzero"/></clipPath><clipPath id="a0e3236f06"><path d="M 116.601562 196 L 123 196 L 123 204 L 116.601562 204 Z M 116.601562 196 " clip-rule="nonzero"/></clipPath><clipPath id="b79a78aed8"><path d="M 116.601562 192 L 123 192 L 123 199 L 116.601562 199 Z M 116.601562 192 " clip-rule="nonzero"/></clipPath><clipPath id="dc66731abf"><path d="M 116.601562 182 L 123 182 L 123 190 L 116.601562 190 Z M 116.601562 182 " clip-rule="nonzero"/></clipPath><clipPath id="aa5bf1c1ce"><path d="M 116.601562 178 L 123 178 L 123 185 L 116.601562 185 Z M 116.601562 178 " clip-rule="nonzero"/></clipPath><clipPath id="73eac8d269"><path d="M 174 119.898438 L 182 119.898438 L 182 126 L 174 126 Z M 174 119.898438 " clip-rule="nonzero"/></clipPath></defs><rect x="-37.5" width="450" fill="#ffffff" y="-37.499999" height="449.999989" fill-opacity="1"/><rect x="-37.5" width="450" fill="#000000" y="-37.499999" height="449.999989" fill-opacity="1"/><path fill="#5e17eb" d="M 177.066406 156.746094 L 180.1875 162.144531 L 181.761719 159.414062 L 183.339844 156.683594 Z M 183.832031 156.964844 L 180.679688 162.429688 L 186.984375 162.429688 Z M 186.984375 162.996094 L 180.578125 162.996094 L 187.191406 182.949219 L 187.191406 162.996094 Z M 184.324219 156.683594 L 187.476562 162.144531 L 190.632812 156.683594 Z M 194.273438 162.996094 L 187.761719 162.996094 L 187.761719 182.949219 L 189.472656 177.785156 L 194.375 162.996094 Z M 187.96875 162.429688 L 194.273438 162.429688 L 192.699219 159.695312 L 191.121094 156.964844 L 189.542969 159.695312 Z M 191.613281 156.683594 L 194.769531 162.144531 L 196.34375 159.414062 L 197.921875 156.683594 Z M 198.414062 156.964844 L 195.257812 162.429688 L 201.566406 162.429688 Z M 201.527344 162.996094 L 194.972656 162.996094 L 188.414062 182.78125 Z M 186.539062 182.78125 L 179.984375 162.996094 L 173.425781 162.996094 Z M 179.695312 162.429688 L 178.117188 159.695312 L 176.542969 156.964844 L 173.386719 162.429688 Z M 179.695312 162.429688 " fill-opacity="1" fill-rule="evenodd"/><path fill="#c8cfe4" d="M 211.738281 164.746094 L 208.621094 170.144531 L 214.929688 170.144531 Z M 214.929688 170.710938 L 208.625 170.714844 L 211.777344 176.171875 Z M 211.285156 176.457031 L 208.128906 170.996094 L 208.082031 170.910156 L 194.109375 186.617188 L 211.386719 176.636719 Z M 215.421875 170.996094 L 212.265625 176.457031 L 218.574219 176.457031 Z M 214.929688 182.773438 L 211.777344 177.3125 L 211.671875 177.128906 L 194.394531 187.105469 L 199.722656 186.007812 L 214.980469 182.859375 Z M 212.269531 177.027344 L 215.421875 182.488281 L 217 179.757812 L 218.574219 177.023438 L 215.421875 177.027344 Z M 219.066406 177.308594 L 215.914062 182.773438 L 222.222656 182.773438 Z M 222.222656 183.339844 L 215.914062 183.339844 L 219.066406 188.800781 Z M 218.554688 189.054688 L 215.421875 183.625 L 215.277344 183.375 L 194.863281 187.585938 Z M 193.929688 185.964844 L 207.78125 170.394531 L 207.640625 170.144531 L 204.503906 164.714844 Z M 208.128906 169.859375 L 211.285156 164.398438 L 204.980469 164.398438 Z M 208.128906 169.859375 " fill-opacity="1" fill-rule="evenodd"/><path fill="#5e17eb" d="M 222.148438 198.769531 L 215.914062 198.769531 L 217.488281 201.5 L 219.066406 204.234375 Z M 218.574219 204.515625 L 215.421875 199.054688 L 212.269531 204.515625 Z M 211.777344 204.234375 L 214.929688 198.769531 L 214.980469 198.683594 L 194.394531 194.4375 L 211.671875 204.410156 Z M 218.574219 205.085938 L 212.265625 205.085938 L 215.421875 210.546875 Z M 208.128906 210.546875 L 211.285156 205.085938 L 211.386719 204.90625 L 194.109375 194.929688 L 197.726562 198.996094 L 208.082031 210.632812 Z M 211.777344 205.371094 L 208.625 210.832031 L 214.929688 210.832031 L 213.351562 208.097656 Z M 214.929688 211.398438 L 208.621094 211.398438 L 211.777344 216.859375 Z M 211.285156 217.144531 L 208.128906 211.683594 L 204.980469 217.144531 Z M 204.503906 216.828125 L 207.640625 211.398438 L 207.78125 211.148438 L 193.929688 195.578125 Z M 194.863281 193.953125 L 215.277344 198.167969 L 215.421875 197.917969 L 218.554688 192.488281 Z M 215.914062 198.203125 L 222.222656 198.203125 L 219.066406 192.742188 Z M 215.914062 198.203125 " fill-opacity="1" fill-rule="evenodd"/><path fill="#c8cfe4" d="M 197.886719 224.796875 L 194.769531 219.398438 L 191.613281 224.859375 Z M 191.121094 224.578125 L 194.273438 219.113281 L 187.96875 219.113281 Z M 187.96875 218.546875 L 194.375 218.546875 L 187.761719 198.59375 L 187.761719 218.546875 Z M 190.632812 224.859375 L 187.476562 219.398438 L 184.324219 224.859375 Z M 180.679688 218.546875 L 187.191406 218.546875 L 187.191406 198.59375 L 185.480469 203.757812 L 180.578125 218.546875 Z M 186.984375 219.113281 L 180.679688 219.113281 L 182.253906 221.84375 L 183.832031 224.578125 L 185.410156 221.84375 Z M 183.339844 224.859375 L 180.1875 219.398438 L 177.03125 224.859375 Z M 176.542969 224.578125 L 179.695312 219.113281 L 173.386719 219.113281 Z M 173.425781 218.546875 L 179.984375 218.546875 L 186.539062 198.761719 Z M 188.414062 198.761719 L 194.972656 218.546875 L 201.527344 218.546875 Z M 195.257812 219.113281 L 196.835938 221.84375 L 198.414062 224.578125 L 201.566406 219.113281 Z M 195.257812 219.113281 " fill-opacity="1" fill-rule="evenodd"/><path fill="#5e17eb" d="M 163.214844 216.796875 L 166.332031 211.398438 L 160.023438 211.398438 Z M 160.023438 210.832031 L 166.332031 210.832031 L 163.175781 205.371094 Z M 163.667969 205.085938 L 166.824219 210.546875 L 166.871094 210.632812 L 180.847656 194.929688 L 163.566406 204.90625 Z M 159.535156 210.546875 L 162.6875 205.085938 L 156.378906 205.085938 Z M 160.023438 198.769531 L 163.179688 204.234375 L 163.28125 204.410156 L 180.5625 194.4375 L 175.230469 195.535156 L 159.976562 198.683594 Z M 162.683594 204.515625 L 159.53125 199.054688 L 157.957031 201.785156 L 156.378906 204.515625 Z M 155.886719 204.234375 L 159.039062 198.769531 L 152.734375 198.769531 Z M 152.730469 198.203125 L 159.039062 198.203125 L 155.886719 192.742188 Z M 156.398438 192.488281 L 159.535156 197.917969 L 159.675781 198.167969 L 180.085938 193.953125 Z M 181.027344 195.578125 L 167.171875 211.148438 L 167.316406 211.398438 L 170.449219 216.828125 Z M 166.820312 211.683594 L 165.246094 214.414062 L 163.667969 217.144531 L 169.976562 217.144531 Z M 166.820312 211.683594 " fill-opacity="1" fill-rule="evenodd"/><path fill="#c8cfe4" d="M 152.804688 182.773438 L 159.042969 182.773438 L 157.464844 180.039062 L 155.886719 177.308594 Z M 156.378906 177.023438 L 159.53125 182.488281 L 162.683594 177.027344 Z M 163.179688 177.308594 L 160.023438 182.773438 L 159.976562 182.859375 L 180.5625 187.105469 L 163.28125 177.128906 Z M 156.378906 176.457031 L 162.6875 176.457031 L 159.535156 170.996094 Z M 166.824219 170.996094 L 163.667969 176.457031 L 163.566406 176.636719 L 180.847656 186.617188 L 177.226562 182.546875 L 166.871094 170.910156 Z M 163.175781 176.171875 L 166.332031 170.714844 L 163.179688 170.710938 L 160.023438 170.710938 L 161.601562 173.445312 Z M 160.023438 170.144531 L 166.332031 170.144531 L 164.753906 167.414062 L 163.179688 164.683594 Z M 163.667969 164.398438 L 166.820312 169.859375 L 169.976562 164.398438 Z M 170.449219 164.714844 L 167.316406 170.144531 L 167.171875 170.394531 L 181.027344 185.964844 Z M 180.085938 187.585938 L 159.675781 183.375 L 159.535156 183.625 L 156.398438 189.054688 Z M 159.039062 183.339844 L 152.730469 183.339844 L 155.886719 188.800781 Z M 159.039062 183.339844 " fill-opacity="1" fill-rule="evenodd"/><path fill="#5e17eb" d="M 184.324219 141.105469 L 187.476562 153.265625 L 190.632812 141.105469 Z M 184.324219 140.539062 L 187.476562 135.078125 L 190.632812 140.539062 Z M 184.324219 140.539062 " fill-opacity="1" fill-rule="evenodd"/><path fill="#c8cfe4" d="M 197.285156 141.984375 L 197.183594 154.542969 L 203.378906 143.617188 Z M 197.429688 141.433594 L 201.890625 136.972656 L 203.523438 143.066406 Z M 197.429688 141.433594 " fill-opacity="1" fill-rule="evenodd"/><path fill="#5e17eb" d="M 209.578125 146.183594 L 206.230469 158.289062 L 215.039062 149.339844 Z M 209.863281 145.691406 L 215.324219 142.539062 L 215.324219 148.84375 Z M 209.863281 145.691406 " fill-opacity="1" fill-rule="evenodd"/><path fill="#c8cfe4" d="M 220.367188 153.421875 L 214 164.25 L 224.824219 157.882812 Z M 220.765625 153.019531 L 226.859375 151.390625 L 225.226562 157.480469 Z M 220.765625 153.019531 " fill-opacity="1" fill-rule="evenodd"/><path fill="#5e17eb" d="M 228.910156 163.207031 L 219.957031 172.019531 L 232.0625 168.671875 Z M 229.402344 162.921875 L 235.710938 162.921875 L 232.558594 168.386719 Z M 229.402344 162.921875 " fill-opacity="1" fill-rule="evenodd"/><path fill="#c8cfe4" d="M 234.632812 174.871094 L 223.707031 181.0625 L 236.265625 180.964844 Z M 235.183594 174.722656 L 241.273438 176.355469 L 236.816406 180.816406 Z M 235.183594 174.722656 " fill-opacity="1" fill-rule="evenodd"/><path fill="#5e17eb" d="M 237.140625 187.617188 L 224.984375 190.769531 L 237.140625 193.925781 Z M 237.710938 187.617188 L 243.171875 190.769531 L 237.710938 193.925781 Z M 237.710938 187.617188 " fill-opacity="1" fill-rule="evenodd"/><path fill="#c8cfe4" d="M 236.265625 200.578125 L 223.707031 200.476562 L 234.632812 206.671875 Z M 236.816406 200.726562 L 241.273438 205.1875 L 235.183594 206.816406 Z M 236.816406 200.726562 " fill-opacity="1" fill-rule="evenodd"/><path fill="#5e17eb" d="M 232.0625 212.871094 L 219.957031 209.523438 L 228.910156 218.335938 Z M 232.558594 213.15625 L 235.710938 218.617188 L 229.402344 218.617188 Z M 232.558594 213.15625 " fill-opacity="1" fill-rule="evenodd"/><path fill="#c8cfe4" d="M 224.824219 223.660156 L 214 217.292969 L 220.367188 228.121094 Z M 225.226562 224.0625 L 226.859375 230.152344 L 220.765625 228.519531 Z M 225.226562 224.0625 " fill-opacity="1" fill-rule="evenodd"/><path fill="#5e17eb" d="M 215.039062 232.203125 L 206.230469 223.253906 L 209.578125 235.359375 Z M 215.324219 232.695312 L 215.324219 239.003906 L 209.863281 235.851562 Z M 215.324219 232.695312 " fill-opacity="1" fill-rule="evenodd"/><path fill="#c8cfe4" d="M 203.378906 237.925781 L 197.183594 227 L 197.285156 239.558594 Z M 203.523438 238.476562 L 201.890625 244.570312 L 197.429688 240.109375 Z M 203.523438 238.476562 " fill-opacity="1" fill-rule="evenodd"/><path fill="#5e17eb" d="M 190.632812 240.433594 L 187.476562 228.277344 L 184.324219 240.433594 Z M 190.632812 241.003906 L 187.476562 246.464844 L 184.324219 241.003906 Z M 190.632812 241.003906 " fill-opacity="1" fill-rule="evenodd"/><path fill="#c8cfe4" d="M 177.667969 239.558594 L 177.769531 227 L 171.574219 237.925781 Z M 177.523438 240.109375 L 173.0625 244.570312 L 171.429688 238.476562 Z M 177.523438 240.109375 " fill-opacity="1" fill-rule="evenodd"/><path fill="#5e17eb" d="M 165.375 235.359375 L 168.722656 223.253906 L 159.914062 232.203125 Z M 165.09375 235.851562 L 159.628906 239.003906 L 159.628906 232.695312 Z M 165.09375 235.851562 " fill-opacity="1" fill-rule="evenodd"/><path fill="#5e17eb" d="M 154.589844 228.121094 L 160.957031 217.292969 L 150.128906 223.660156 Z M 154.1875 228.523438 L 148.09375 230.152344 L 149.726562 224.0625 Z M 154.1875 228.523438 " fill-opacity="1" fill-rule="evenodd"/><path fill="#c8cfe4" d="M 146.042969 218.335938 L 154.996094 209.523438 L 142.890625 212.871094 Z M 145.550781 218.617188 L 139.242188 218.617188 L 142.398438 213.15625 Z M 145.550781 218.617188 " fill-opacity="1" fill-rule="evenodd"/><path fill="#5e17eb" d="M 140.320312 206.671875 L 151.25 200.476562 L 138.6875 200.578125 Z M 139.769531 206.816406 L 133.679688 205.1875 L 138.140625 200.726562 Z M 139.769531 206.816406 " fill-opacity="1" fill-rule="evenodd"/><path fill="#5e17eb" d="M 137.8125 193.925781 L 149.972656 190.769531 L 137.8125 187.617188 Z M 137.246094 193.925781 L 131.78125 190.769531 L 137.246094 187.617188 Z M 137.246094 193.925781 " fill-opacity="1" fill-rule="evenodd"/><path fill="#c8cfe4" d="M 138.6875 180.964844 L 151.25 181.0625 L 140.320312 174.871094 Z M 138.140625 180.816406 L 133.679688 176.355469 L 139.769531 174.722656 Z M 138.140625 180.816406 " fill-opacity="1" fill-rule="evenodd"/><path fill="#5e17eb" d="M 142.890625 168.671875 L 154.996094 172.019531 L 146.042969 163.207031 Z M 142.398438 168.386719 L 139.242188 162.921875 L 145.550781 162.921875 Z M 142.398438 168.386719 " fill-opacity="1" fill-rule="evenodd"/><path fill="#c8cfe4" d="M 150.128906 157.882812 L 160.957031 164.25 L 154.589844 153.421875 Z M 149.726562 157.480469 L 148.09375 151.390625 L 154.1875 153.019531 Z M 149.726562 157.480469 " fill-opacity="1" fill-rule="evenodd"/><path fill="#5e17eb" d="M 159.914062 149.339844 L 168.722656 158.289062 L 165.375 146.183594 Z M 159.628906 148.84375 L 159.628906 142.539062 L 165.09375 145.691406 Z M 159.628906 148.84375 " fill-opacity="1" fill-rule="evenodd"/><path fill="#c8cfe4" d="M 171.574219 143.617188 L 177.769531 154.542969 L 177.667969 141.984375 Z M 171.429688 143.066406 L 173.0625 136.972656 L 177.523438 141.433594 Z M 171.429688 143.066406 " fill-opacity="1" fill-rule="evenodd"/><path fill="#5e17eb" d="M 192.984375 120.121094 L 189.023438 125.28125 L 195.472656 126.132812 Z M 192.984375 120.121094 " fill-opacity="1" fill-rule="evenodd"/><path fill="#5e17eb" d="M 195.398438 126.714844 L 188.949219 125.863281 L 188.847656 125.851562 L 193.824219 140.332031 L 195.609375 126.742188 Z M 195.398438 126.714844 " fill-opacity="1" fill-rule="evenodd"/><g clip-path="url(#6c3dc31b6b)"><path fill="#5e17eb" d="M 193.527344 119.898438 L 196.015625 125.910156 L 199.976562 120.746094 Z M 193.527344 119.898438 " fill-opacity="1" fill-rule="evenodd"/></g><path fill="#5e17eb" d="M 202.855469 127.695312 L 196.40625 126.847656 L 196.191406 126.816406 L 194.402344 140.40625 L 196.617188 137.121094 L 202.957031 127.707031 Z M 202.855469 127.695312 " fill-opacity="1" fill-rule="evenodd"/><path fill="#5e17eb" d="M 196.480469 126.265625 L 202.933594 127.113281 L 201.6875 124.109375 L 200.441406 121.101562 Z M 196.480469 126.265625 " fill-opacity="1" fill-rule="evenodd"/><path fill="#c8cfe4" d="M 211.085938 123.953125 L 205.921875 127.914062 L 211.933594 130.402344 Z M 211.085938 123.953125 " fill-opacity="1" fill-rule="evenodd"/><path fill="#c8cfe4" d="M 211.707031 130.949219 L 205.699219 128.457031 L 205.601562 128.417969 L 206.660156 143.691406 L 211.90625 131.027344 Z M 211.707031 130.949219 " fill-opacity="1" fill-rule="evenodd"/><path fill="#c8cfe4" d="M 211.664062 123.878906 L 212.515625 130.328125 L 217.675781 126.367188 Z M 211.664062 123.878906 " fill-opacity="1" fill-rule="evenodd"/><path fill="#c8cfe4" d="M 218.65625 133.824219 L 212.644531 131.335938 L 212.449219 131.253906 L 207.203125 143.914062 L 210.191406 141.3125 L 218.75 133.863281 Z M 218.65625 133.824219 " fill-opacity="1" fill-rule="evenodd"/><path fill="#c8cfe4" d="M 212.871094 130.792969 L 218.878906 133.28125 L 218.457031 130.058594 L 218.03125 126.832031 L 215.449219 128.8125 Z M 212.871094 130.792969 " fill-opacity="1" fill-rule="evenodd"/><path fill="#5e17eb" d="M 227.574219 132.339844 L 221.558594 134.828125 L 226.722656 138.789062 Z M 227.574219 132.339844 " fill-opacity="1" fill-rule="evenodd"/><path fill="#5e17eb" d="M 226.367188 139.257812 L 221.203125 135.296875 L 221.125 135.234375 L 218.191406 150.261719 L 226.535156 139.386719 Z M 226.367188 139.257812 " fill-opacity="1" fill-rule="evenodd"/><path fill="#5e17eb" d="M 228.152344 132.417969 L 227.304688 138.867188 L 233.316406 136.378906 Z M 228.152344 132.417969 " fill-opacity="1" fill-rule="evenodd"/><path fill="#5e17eb" d="M 232.332031 143.835938 L 227.171875 139.875 L 227 139.742188 L 218.65625 150.617188 L 222.21875 148.878906 L 232.414062 143.898438 Z M 232.332031 143.835938 " fill-opacity="1" fill-rule="evenodd"/><path fill="#5e17eb" d="M 227.527344 139.410156 L 232.691406 143.367188 L 233.113281 140.144531 L 233.539062 136.917969 L 230.53125 138.164062 Z M 227.527344 139.410156 " fill-opacity="1" fill-rule="evenodd"/><path fill="#c8cfe4" d="M 241.332031 144.707031 L 234.878906 145.558594 L 238.839844 150.71875 Z M 241.332031 144.707031 " fill-opacity="1" fill-rule="evenodd"/><path fill="#c8cfe4" d="M 238.375 151.078125 L 234.414062 145.917969 L 234.351562 145.832031 L 227.628906 159.589844 L 238.503906 151.246094 Z M 238.375 151.078125 " fill-opacity="1" fill-rule="evenodd"/><path fill="#c8cfe4" d="M 241.871094 144.933594 L 239.378906 150.945312 L 245.832031 150.09375 Z M 241.871094 144.933594 " fill-opacity="1" fill-rule="evenodd"/><path fill="#c8cfe4" d="M 242.953125 157.042969 L 238.992188 151.882812 L 238.859375 151.710938 L 227.988281 160.058594 L 231.878906 159.296875 L 243.015625 157.125 Z M 242.953125 157.042969 " fill-opacity="1" fill-rule="evenodd"/><path fill="#c8cfe4" d="M 239.457031 151.523438 L 243.417969 156.6875 L 244.664062 153.679688 L 245.910156 150.675781 L 242.683594 151.101562 Z M 239.457031 151.523438 " fill-opacity="1" fill-rule="evenodd"/><path fill="#5e17eb" d="M 251.417969 160.214844 L 244.964844 159.367188 L 247.457031 165.378906 Z M 251.417969 160.214844 " fill-opacity="1" fill-rule="evenodd"/><path fill="#5e17eb" d="M 246.914062 165.601562 L 244.421875 159.59375 L 244.382812 159.496094 L 234.332031 171.046875 L 246.996094 165.800781 Z M 246.914062 165.601562 " fill-opacity="1" fill-rule="evenodd"/><path fill="#5e17eb" d="M 251.878906 160.574219 L 247.917969 165.734375 L 254.371094 166.585938 Z M 251.878906 160.574219 " fill-opacity="1" fill-rule="evenodd"/><path fill="#5e17eb" d="M 249.792969 172.550781 L 247.300781 166.539062 L 247.21875 166.34375 L 234.558594 171.589844 L 238.511719 171.863281 L 249.832031 172.644531 Z M 249.792969 172.550781 " fill-opacity="1" fill-rule="evenodd"/><path fill="#5e17eb" d="M 247.84375 166.316406 L 250.335938 172.328125 L 252.3125 169.746094 L 254.296875 167.164062 L 251.070312 166.742188 Z M 247.84375 166.316406 " fill-opacity="1" fill-rule="evenodd"/><path fill="#c8cfe4" d="M 257.148438 177.804688 L 251.136719 175.316406 L 251.984375 181.769531 Z M 257.148438 177.804688 " fill-opacity="1" fill-rule="evenodd"/><path fill="#c8cfe4" d="M 251.402344 181.84375 L 250.550781 175.394531 L 250.539062 175.292969 L 237.839844 183.847656 L 251.429688 182.054688 Z M 251.402344 181.84375 " fill-opacity="1" fill-rule="evenodd"/><g clip-path="url(#d93ee2a6b5)"><path fill="#c8cfe4" d="M 257.503906 178.269531 L 252.339844 182.230469 L 258.351562 184.722656 Z M 257.503906 178.269531 " fill-opacity="1" fill-rule="evenodd"/></g><path fill="#c8cfe4" d="M 252.382812 189.300781 L 251.535156 182.851562 L 251.507812 182.636719 L 237.917969 184.425781 L 241.667969 185.714844 L 252.398438 189.402344 Z M 252.382812 189.300781 " fill-opacity="1" fill-rule="evenodd"/><g clip-path="url(#2527989f81)"><path fill="#c8cfe4" d="M 252.117188 182.773438 L 252.964844 189.222656 L 255.546875 187.246094 L 258.128906 185.261719 L 255.121094 184.015625 Z M 252.117188 182.773438 " fill-opacity="1" fill-rule="evenodd"/></g><g clip-path="url(#2abe805b45)"><path fill="#5e17eb" d="M 258.128906 196.277344 L 252.964844 192.320312 L 252.117188 198.769531 Z M 258.128906 196.277344 " fill-opacity="1" fill-rule="evenodd"/></g><path fill="#5e17eb" d="M 251.535156 198.691406 L 252.382812 192.242188 L 252.398438 192.140625 L 237.917969 197.117188 L 251.507812 198.90625 Z M 251.535156 198.691406 " fill-opacity="1" fill-rule="evenodd"/><g clip-path="url(#21c8f590fa)"><path fill="#5e17eb" d="M 258.351562 196.820312 L 252.339844 199.308594 L 257.503906 203.273438 Z M 258.351562 196.820312 " fill-opacity="1" fill-rule="evenodd"/></g><path fill="#5e17eb" d="M 250.550781 206.148438 L 251.402344 199.699219 L 251.429688 199.488281 L 237.839844 197.699219 L 241.128906 199.914062 L 250.539062 206.25 Z M 250.550781 206.148438 " fill-opacity="1" fill-rule="evenodd"/><path fill="#5e17eb" d="M 251.984375 199.773438 L 251.136719 206.226562 L 254.140625 204.980469 L 257.148438 203.738281 L 254.566406 201.757812 Z M 251.984375 199.773438 " fill-opacity="1" fill-rule="evenodd"/><path fill="#c8cfe4" d="M 254.296875 214.378906 L 250.335938 209.214844 L 247.84375 215.226562 Z M 254.296875 214.378906 " fill-opacity="1" fill-rule="evenodd"/><path fill="#c8cfe4" d="M 247.300781 215.003906 L 249.792969 208.992188 L 249.832031 208.894531 L 234.558594 209.953125 L 247.21875 215.199219 Z M 247.300781 215.003906 " fill-opacity="1" fill-rule="evenodd"/><path fill="#c8cfe4" d="M 254.371094 214.957031 L 247.917969 215.808594 L 251.878906 220.96875 Z M 254.371094 214.957031 " fill-opacity="1" fill-rule="evenodd"/><path fill="#c8cfe4" d="M 244.421875 221.953125 L 246.914062 215.941406 L 246.996094 215.742188 L 234.332031 210.496094 L 236.933594 213.488281 L 244.382812 222.046875 Z M 244.421875 221.953125 " fill-opacity="1" fill-rule="evenodd"/><path fill="#c8cfe4" d="M 247.457031 216.164062 L 244.964844 222.175781 L 248.191406 221.75 L 251.417969 221.328125 Z M 247.457031 216.164062 " fill-opacity="1" fill-rule="evenodd"/><path fill="#5e17eb" d="M 245.910156 230.867188 L 243.417969 224.855469 L 239.457031 230.019531 Z M 245.910156 230.867188 " fill-opacity="1" fill-rule="evenodd"/><path fill="#5e17eb" d="M 238.992188 229.660156 L 242.953125 224.5 L 243.015625 224.417969 L 227.988281 221.484375 L 238.859375 229.832031 Z M 238.992188 229.660156 " fill-opacity="1" fill-rule="evenodd"/><path fill="#5e17eb" d="M 245.832031 231.445312 L 239.378906 230.597656 L 241.871094 236.609375 Z M 245.832031 231.445312 " fill-opacity="1" fill-rule="evenodd"/><path fill="#5e17eb" d="M 234.414062 235.625 L 238.371094 230.464844 L 238.503906 230.296875 L 227.628906 221.953125 L 229.371094 225.515625 L 234.351562 235.707031 Z M 234.414062 235.625 " fill-opacity="1" fill-rule="evenodd"/><path fill="#5e17eb" d="M 238.839844 230.824219 L 234.878906 235.984375 L 241.332031 236.835938 L 240.085938 233.828125 Z M 238.839844 230.824219 " fill-opacity="1" fill-rule="evenodd"/><path fill="#c8cfe4" d="M 233.539062 244.625 L 232.691406 238.171875 L 227.527344 242.132812 Z M 233.539062 244.625 " fill-opacity="1" fill-rule="evenodd"/><path fill="#c8cfe4" d="M 227.171875 241.667969 L 232.332031 237.707031 L 232.414062 237.644531 L 218.65625 230.921875 L 227 241.796875 Z M 227.171875 241.667969 " fill-opacity="1" fill-rule="evenodd"/><path fill="#c8cfe4" d="M 233.316406 245.164062 L 227.304688 242.675781 L 228.152344 249.125 Z M 233.316406 245.164062 " fill-opacity="1" fill-rule="evenodd"/><path fill="#c8cfe4" d="M 221.203125 246.246094 L 226.363281 242.285156 L 226.535156 242.15625 L 218.191406 231.28125 L 218.953125 235.171875 L 221.125 246.308594 Z M 221.203125 246.246094 " fill-opacity="1" fill-rule="evenodd"/><path fill="#c8cfe4" d="M 226.722656 242.753906 L 221.558594 246.710938 L 227.574219 249.203125 L 227.148438 245.976562 Z M 226.722656 242.753906 " fill-opacity="1" fill-rule="evenodd"/><path fill="#5e17eb" d="M 218.03125 254.710938 L 218.878906 248.261719 L 212.871094 250.75 Z M 218.03125 254.710938 " fill-opacity="1" fill-rule="evenodd"/><path fill="#5e17eb" d="M 212.644531 250.207031 L 218.65625 247.71875 L 218.75 247.679688 L 207.203125 237.628906 L 212.449219 250.289062 Z M 212.644531 250.207031 " fill-opacity="1" fill-rule="evenodd"/><path fill="#5e17eb" d="M 217.675781 255.171875 L 212.515625 251.214844 L 211.664062 257.664062 Z M 217.675781 255.171875 " fill-opacity="1" fill-rule="evenodd"/><path fill="#5e17eb" d="M 205.699219 253.085938 L 211.707031 250.597656 L 211.90625 250.515625 L 206.660156 237.851562 L 206.386719 241.804688 L 205.601562 253.125 Z M 205.699219 253.085938 " fill-opacity="1" fill-rule="evenodd"/><path fill="#5e17eb" d="M 211.933594 251.140625 L 205.921875 253.628906 L 208.5 255.609375 L 211.085938 257.589844 L 211.507812 254.363281 Z M 211.933594 251.140625 " fill-opacity="1" fill-rule="evenodd"/><path fill="#c8cfe4" d="M 200.441406 260.441406 L 202.933594 254.429688 L 196.480469 255.277344 Z M 200.441406 260.441406 " fill-opacity="1" fill-rule="evenodd"/><path fill="#c8cfe4" d="M 196.40625 254.699219 L 202.855469 253.847656 L 202.957031 253.835938 L 194.402344 241.132812 L 196.191406 254.722656 Z M 196.40625 254.699219 " fill-opacity="1" fill-rule="evenodd"/><g clip-path="url(#70d33cb7f9)"><path fill="#c8cfe4" d="M 199.976562 260.796875 L 196.015625 255.632812 L 193.527344 261.644531 Z M 199.976562 260.796875 " fill-opacity="1" fill-rule="evenodd"/></g><path fill="#c8cfe4" d="M 188.949219 255.679688 L 195.398438 254.828125 L 195.609375 254.800781 L 193.824219 241.210938 L 192.53125 244.960938 L 188.847656 255.691406 Z M 188.949219 255.679688 " fill-opacity="1" fill-rule="evenodd"/><g clip-path="url(#8aa3eface8)"><path fill="#c8cfe4" d="M 195.472656 255.410156 L 189.023438 256.261719 L 191.003906 258.839844 L 192.984375 261.421875 L 194.230469 258.417969 Z M 195.472656 255.410156 " fill-opacity="1" fill-rule="evenodd"/></g><g clip-path="url(#2a267812e3)"><path fill="#5e17eb" d="M 181.96875 261.421875 L 185.929688 256.261719 L 179.476562 255.410156 Z M 181.96875 261.421875 " fill-opacity="1" fill-rule="evenodd"/></g><path fill="#5e17eb" d="M 179.554688 254.828125 L 186.007812 255.675781 L 186.109375 255.691406 L 181.132812 241.210938 L 179.34375 254.800781 Z M 179.554688 254.828125 " fill-opacity="1" fill-rule="evenodd"/><g clip-path="url(#6e43eec0e7)"><path fill="#5e17eb" d="M 181.425781 261.644531 L 178.9375 255.632812 L 174.976562 260.796875 Z M 181.425781 261.644531 " fill-opacity="1" fill-rule="evenodd"/></g><path fill="#5e17eb" d="M 172.097656 253.847656 L 178.546875 254.695312 L 178.761719 254.722656 L 180.550781 241.132812 L 178.335938 244.421875 L 171.996094 253.835938 Z M 172.097656 253.847656 " fill-opacity="1" fill-rule="evenodd"/><path fill="#5e17eb" d="M 178.472656 255.277344 L 172.023438 254.429688 L 173.265625 257.433594 L 174.511719 260.441406 Z M 178.472656 255.277344 " fill-opacity="1" fill-rule="evenodd"/><path fill="#c8cfe4" d="M 163.871094 257.589844 L 169.03125 253.628906 L 163.019531 251.140625 Z M 163.871094 257.589844 " fill-opacity="1" fill-rule="evenodd"/><path fill="#c8cfe4" d="M 163.246094 250.597656 L 169.257812 253.085938 L 169.351562 253.125 L 168.292969 237.851562 L 163.046875 250.515625 Z M 163.246094 250.597656 " fill-opacity="1" fill-rule="evenodd"/><path fill="#c8cfe4" d="M 163.289062 257.664062 L 162.441406 251.214844 L 157.277344 255.171875 Z M 163.289062 257.664062 " fill-opacity="1" fill-rule="evenodd"/><path fill="#c8cfe4" d="M 156.296875 247.71875 L 162.308594 250.207031 L 162.507812 250.289062 L 167.75 237.628906 L 164.761719 240.230469 L 156.203125 247.679688 Z M 156.296875 247.71875 " fill-opacity="1" fill-rule="evenodd"/><path fill="#c8cfe4" d="M 162.082031 250.75 L 156.070312 248.261719 L 156.496094 251.484375 L 156.921875 254.710938 L 159.503906 252.730469 Z M 162.082031 250.75 " fill-opacity="1" fill-rule="evenodd"/><path fill="#5e17eb" d="M 147.378906 249.203125 L 153.390625 246.710938 L 148.230469 242.753906 Z M 147.378906 249.203125 " fill-opacity="1" fill-rule="evenodd"/><path fill="#5e17eb" d="M 148.585938 242.285156 L 153.75 246.246094 L 153.832031 246.308594 L 156.761719 231.28125 L 148.417969 242.15625 Z M 148.585938 242.285156 " fill-opacity="1" fill-rule="evenodd"/><path fill="#5e17eb" d="M 146.800781 249.125 L 147.648438 242.675781 L 141.636719 245.164062 Z M 146.800781 249.125 " fill-opacity="1" fill-rule="evenodd"/><path fill="#5e17eb" d="M 142.621094 237.707031 L 147.78125 241.667969 L 147.953125 241.796875 L 156.296875 230.921875 L 152.734375 232.664062 L 142.539062 237.644531 Z M 142.621094 237.707031 " fill-opacity="1" fill-rule="evenodd"/><path fill="#5e17eb" d="M 147.425781 242.132812 L 142.265625 238.171875 L 141.414062 244.625 L 144.417969 243.378906 Z M 147.425781 242.132812 " fill-opacity="1" fill-rule="evenodd"/><path fill="#c8cfe4" d="M 133.625 236.835938 L 140.074219 235.984375 L 136.113281 230.824219 Z M 133.625 236.835938 " fill-opacity="1" fill-rule="evenodd"/><path fill="#c8cfe4" d="M 136.578125 230.464844 L 140.539062 235.625 L 140.601562 235.707031 L 147.324219 221.953125 L 136.449219 230.296875 Z M 136.578125 230.464844 " fill-opacity="1" fill-rule="evenodd"/><path fill="#c8cfe4" d="M 133.082031 236.609375 L 135.574219 230.597656 L 129.121094 231.445312 Z M 133.082031 236.609375 " fill-opacity="1" fill-rule="evenodd"/><path fill="#c8cfe4" d="M 132 224.5 L 135.960938 229.660156 L 136.09375 229.832031 L 146.964844 221.484375 L 143.074219 222.246094 L 131.941406 224.417969 Z M 132 224.5 " fill-opacity="1" fill-rule="evenodd"/><path fill="#c8cfe4" d="M 135.496094 230.019531 L 131.535156 224.855469 L 130.289062 227.863281 L 129.042969 230.867188 L 132.269531 230.441406 Z M 135.496094 230.019531 " fill-opacity="1" fill-rule="evenodd"/><path fill="#5e17eb" d="M 123.535156 221.328125 L 129.988281 222.175781 L 127.5 216.164062 Z M 123.535156 221.328125 " fill-opacity="1" fill-rule="evenodd"/><path fill="#5e17eb" d="M 128.039062 215.941406 L 130.53125 221.949219 L 130.570312 222.046875 L 140.621094 210.496094 L 127.957031 215.742188 Z M 128.039062 215.941406 " fill-opacity="1" fill-rule="evenodd"/><path fill="#5e17eb" d="M 123.074219 220.96875 L 127.035156 215.808594 L 120.582031 214.957031 Z M 123.074219 220.96875 " fill-opacity="1" fill-rule="evenodd"/><path fill="#5e17eb" d="M 125.160156 208.992188 L 127.652344 215.003906 L 127.734375 215.199219 L 140.398438 209.953125 L 136.441406 209.679688 L 125.125 208.894531 Z M 125.160156 208.992188 " fill-opacity="1" fill-rule="evenodd"/><path fill="#5e17eb" d="M 127.109375 215.226562 L 124.621094 209.214844 L 122.636719 211.796875 L 120.65625 214.378906 L 123.882812 214.804688 Z M 127.109375 215.226562 " fill-opacity="1" fill-rule="evenodd"/><path fill="#c8cfe4" d="M 117.808594 203.738281 L 123.820312 206.226562 L 122.96875 199.773438 Z M 117.808594 203.738281 " fill-opacity="1" fill-rule="evenodd"/><path fill="#c8cfe4" d="M 123.550781 199.699219 L 124.402344 206.148438 L 124.414062 206.25 L 137.113281 197.699219 L 123.523438 199.488281 Z M 123.550781 199.699219 " fill-opacity="1" fill-rule="evenodd"/><g clip-path="url(#a0e3236f06)"><path fill="#c8cfe4" d="M 117.453125 203.273438 L 122.613281 199.308594 L 116.601562 196.820312 Z M 117.453125 203.273438 " fill-opacity="1" fill-rule="evenodd"/></g><path fill="#c8cfe4" d="M 122.570312 192.242188 L 123.417969 198.691406 L 123.445312 198.90625 L 137.035156 197.117188 L 133.289062 195.828125 L 122.558594 192.140625 Z M 122.570312 192.242188 " fill-opacity="1" fill-rule="evenodd"/><g clip-path="url(#b79a78aed8)"><path fill="#c8cfe4" d="M 122.835938 198.769531 L 121.988281 192.320312 L 119.40625 194.296875 L 116.824219 196.277344 L 119.832031 197.523438 Z M 122.835938 198.769531 " fill-opacity="1" fill-rule="evenodd"/></g><g clip-path="url(#dc66731abf)"><path fill="#5e17eb" d="M 116.824219 185.261719 L 121.988281 189.222656 L 122.835938 182.773438 Z M 116.824219 185.261719 " fill-opacity="1" fill-rule="evenodd"/></g><path fill="#5e17eb" d="M 123.417969 182.847656 L 122.570312 189.300781 L 122.558594 189.402344 L 137.035156 184.425781 L 123.445312 182.636719 Z M 123.417969 182.847656 " fill-opacity="1" fill-rule="evenodd"/><g clip-path="url(#aa5bf1c1ce)"><path fill="#5e17eb" d="M 116.601562 184.722656 L 122.613281 182.230469 L 117.453125 178.269531 Z M 116.601562 184.722656 " fill-opacity="1" fill-rule="evenodd"/></g><path fill="#5e17eb" d="M 124.402344 175.394531 L 123.550781 181.84375 L 123.523438 182.054688 L 137.113281 183.847656 L 133.824219 181.628906 L 124.414062 175.292969 Z M 124.402344 175.394531 " fill-opacity="1" fill-rule="evenodd"/><path fill="#5e17eb" d="M 122.96875 181.769531 L 123.820312 175.316406 L 120.8125 176.5625 L 117.808594 177.804688 L 120.390625 179.785156 Z M 122.96875 181.769531 " fill-opacity="1" fill-rule="evenodd"/><path fill="#c8cfe4" d="M 120.65625 167.164062 L 124.621094 172.328125 L 127.109375 166.316406 Z M 120.65625 167.164062 " fill-opacity="1" fill-rule="evenodd"/><path fill="#c8cfe4" d="M 127.652344 166.539062 L 125.160156 172.550781 L 125.125 172.644531 L 140.398438 171.589844 L 127.734375 166.34375 Z M 127.652344 166.539062 " fill-opacity="1" fill-rule="evenodd"/><path fill="#c8cfe4" d="M 120.582031 166.585938 L 127.035156 165.734375 L 123.074219 160.574219 Z M 120.582031 166.585938 " fill-opacity="1" fill-rule="evenodd"/><path fill="#c8cfe4" d="M 130.53125 159.589844 L 128.039062 165.601562 L 127.957031 165.800781 L 140.621094 171.046875 L 138.019531 168.054688 L 130.570312 159.496094 Z M 130.53125 159.589844 " fill-opacity="1" fill-rule="evenodd"/><path fill="#c8cfe4" d="M 127.5 165.378906 L 129.988281 159.367188 L 126.761719 159.792969 L 123.535156 160.214844 L 125.515625 162.796875 Z M 127.5 165.378906 " fill-opacity="1" fill-rule="evenodd"/><path fill="#5e17eb" d="M 129.042969 150.675781 L 131.535156 156.6875 L 135.496094 151.523438 Z M 129.042969 150.675781 " fill-opacity="1" fill-rule="evenodd"/><path fill="#5e17eb" d="M 135.960938 151.882812 L 132 157.042969 L 131.941406 157.125 L 146.964844 160.058594 L 136.09375 151.710938 Z M 135.960938 151.882812 " fill-opacity="1" fill-rule="evenodd"/><path fill="#5e17eb" d="M 129.121094 150.09375 L 135.574219 150.945312 L 133.082031 144.933594 Z M 129.121094 150.09375 " fill-opacity="1" fill-rule="evenodd"/><path fill="#5e17eb" d="M 140.542969 145.917969 L 136.578125 151.078125 L 136.449219 151.246094 L 147.324219 159.589844 L 145.582031 156.027344 L 140.601562 145.832031 Z M 140.542969 145.917969 " fill-opacity="1" fill-rule="evenodd"/><path fill="#5e17eb" d="M 136.113281 150.71875 L 140.074219 145.558594 L 136.851562 145.132812 L 133.625 144.707031 L 134.871094 147.714844 Z M 136.113281 150.71875 " fill-opacity="1" fill-rule="evenodd"/><path fill="#c8cfe4" d="M 141.414062 136.917969 L 142.265625 143.367188 L 147.425781 139.410156 Z M 141.414062 136.917969 " fill-opacity="1" fill-rule="evenodd"/><path fill="#c8cfe4" d="M 147.78125 139.875 L 142.621094 143.835938 L 142.539062 143.898438 L 156.296875 150.617188 L 147.953125 139.742188 Z M 147.78125 139.875 " fill-opacity="1" fill-rule="evenodd"/><path fill="#c8cfe4" d="M 141.636719 136.378906 L 147.648438 138.867188 L 146.800781 132.417969 Z M 141.636719 136.378906 " fill-opacity="1" fill-rule="evenodd"/><path fill="#c8cfe4" d="M 153.75 135.296875 L 148.585938 139.257812 L 148.417969 139.386719 L 156.761719 150.261719 L 156.003906 146.371094 L 153.832031 135.234375 Z M 153.75 135.296875 " fill-opacity="1" fill-rule="evenodd"/><path fill="#c8cfe4" d="M 148.230469 138.789062 L 153.390625 134.828125 L 150.386719 133.585938 L 147.378906 132.339844 L 147.804688 135.566406 Z M 148.230469 138.789062 " fill-opacity="1" fill-rule="evenodd"/><path fill="#5e17eb" d="M 156.921875 126.832031 L 156.074219 133.28125 L 162.082031 130.792969 Z M 156.921875 126.832031 " fill-opacity="1" fill-rule="evenodd"/><path fill="#5e17eb" d="M 162.308594 131.335938 L 156.296875 133.824219 L 156.203125 133.863281 L 167.75 143.914062 L 162.507812 131.253906 Z M 162.308594 131.335938 " fill-opacity="1" fill-rule="evenodd"/><path fill="#5e17eb" d="M 157.277344 126.367188 L 162.441406 130.328125 L 163.289062 123.878906 Z M 157.277344 126.367188 " fill-opacity="1" fill-rule="evenodd"/><path fill="#5e17eb" d="M 169.257812 128.457031 L 163.246094 130.949219 L 163.046875 131.027344 L 168.292969 143.691406 L 168.570312 139.738281 L 169.351562 128.417969 Z M 169.257812 128.457031 " fill-opacity="1" fill-rule="evenodd"/><path fill="#5e17eb" d="M 163.019531 130.402344 L 169.03125 127.914062 L 166.453125 125.933594 L 163.871094 123.953125 L 163.445312 127.179688 Z M 163.019531 130.402344 " fill-opacity="1" fill-rule="evenodd"/><path fill="#c8cfe4" d="M 174.511719 121.101562 L 172.023438 127.113281 L 178.472656 126.265625 Z M 174.511719 121.101562 " fill-opacity="1" fill-rule="evenodd"/><path fill="#c8cfe4" d="M 178.546875 126.847656 L 172.097656 127.695312 L 171.996094 127.707031 L 180.550781 140.40625 L 178.761719 126.816406 Z M 178.546875 126.847656 " fill-opacity="1" fill-rule="evenodd"/><g clip-path="url(#73eac8d269)"><path fill="#c8cfe4" d="M 174.976562 120.746094 L 178.9375 125.910156 L 181.425781 119.898438 Z M 174.976562 120.746094 " fill-opacity="1" fill-rule="evenodd"/></g><path fill="#c8cfe4" d="M 186.007812 125.863281 L 179.554688 126.714844 L 179.34375 126.742188 L 181.132812 140.332031 L 182.421875 136.582031 L 186.109375 125.851562 Z M 186.007812 125.863281 " fill-opacity="1" fill-rule="evenodd"/><path fill="#c8cfe4" d="M 179.476562 126.132812 L 185.929688 125.28125 L 183.949219 122.699219 L 181.96875 120.121094 L 180.722656 123.125 Z M 179.476562 126.132812 " fill-opacity="1" fill-rule="evenodd"/><g fill="#5e17eb" fill-opacity="1"><g transform="translate(110.543626, 153.968328)"><g><path d="M -0.84375 -4.300781 L -2.332031 -5.300781 L -3.75 -9.707031 L 3.519531 -8.949219 C 4.285156 -8.882812 4.972656 -8.730469 5.679688 -8.449219 L 7.746094 -11.523438 C 6.804688 -11.457031 5.234375 -11.5 4.070312 -11.609375 L -4.648438 -12.503906 L -6.0625 -16.792969 C -6.457031 -18.042969 -6.863281 -19.523438 -7.078125 -20.789062 L -8.78125 -18.257812 C -7.789062 -17.644531 -7.03125 -16.855469 -6.570312 -15.449219 L -3.570312 -6.132812 L -10.203125 -10.59375 C -11.1875 -11.253906 -11.988281 -11.90625 -12.539062 -12.667969 L -14.503906 -9.75 C -13.585938 -9.527344 -12.683594 -9.03125 -11.695312 -8.367188 C -10.109375 -7.300781 -3.921875 -3.144531 -2.335938 -2.078125 C -1.351562 -1.414062 -0.554688 -0.765625 0 0 L 1.960938 -2.917969 C 1.046875 -3.144531 0.144531 -3.636719 -0.84375 -4.300781 Z M -0.84375 -4.300781 "/></g></g></g><g fill="#5e17eb" fill-opacity="1"><g transform="translate(120.408849, 139.41054)"><g><path d="M -5.25 -19.199219 L -7.332031 -17.195312 L -1.089844 -3.21875 C -0.648438 -2.21875 -0.226562 -0.976562 0 0 L 2.199219 -2.117188 C 0.789062 -2.507812 -0.0234375 -3.050781 -0.402344 -3.878906 C -0.890625 -4.992188 -1.234375 -5.957031 -0.882812 -7.167969 C -0.386719 -8.972656 1.425781 -10.683594 3.296875 -11.09375 C 4.402344 -11.316406 5.335938 -10.988281 6.464844 -10.421875 C 7.425781 -9.957031 8.550781 -9.359375 9.117188 -8.773438 L 11.667969 -11.226562 C 10.703125 -11.492188 9.457031 -11.945312 8.480469 -12.425781 Z M 3.246094 -12.015625 C 0.867188 -11.535156 -1.285156 -9.46875 -1.839844 -7.121094 L -6.039062 -16.5625 Z M 3.246094 -12.015625 "/></g></g></g><g fill="#5e17eb" fill-opacity="1"><g transform="translate(135.087925, 125.918)"><g><path d="M 2.714844 -9.476562 C 4 -7.476562 4.90625 -4.816406 2.722656 -3.132812 C 1.28125 -2.015625 -0.476562 -2.464844 -2.042969 -3.5625 L -2.21875 -3.449219 C -0.152344 -1.398438 2.136719 -1.375 3.800781 -2.445312 C 6.210938 -3.996094 7.296875 -7.351562 5.230469 -10.5625 L 0.730469 -17.5625 C 0.0898438 -18.558594 -0.386719 -19.472656 -0.59375 -20.394531 L -3.550781 -18.492188 C -2.796875 -17.921875 -2.183594 -17.097656 -1.542969 -16.097656 Z M 2.714844 -9.476562 "/></g></g></g><g fill="#5e17eb" fill-opacity="1"><g transform="translate(146.977103, 118.026073)"><g><path d="M 2.089844 -19.867188 C -2.585938 -18.074219 -4.921875 -12.835938 -3.128906 -8.160156 C -1.335938 -3.480469 3.902344 -1.148438 8.578125 -2.941406 C 13.257812 -4.734375 15.589844 -9.96875 13.796875 -14.648438 C 12.003906 -19.324219 6.769531 -21.660156 2.089844 -19.867188 Z M 11.535156 -6.167969 C 9.285156 -3.507812 4.710938 -3.726562 1.277344 -6.628906 C -2.148438 -9.507812 -3.097656 -14.007812 -0.871094 -16.660156 C 1.363281 -19.289062 5.960938 -19.078125 9.386719 -16.199219 C 12.796875 -13.289062 13.769531 -8.796875 11.535156 -6.167969 Z M 11.535156 -6.167969 "/></g></g></g><g fill="#5e17eb" fill-opacity="1"><g transform="translate(167.544868, 110.702056)"><g><path d="M 0.859375 -14.679688 C 0.675781 -15.855469 0.609375 -16.882812 0.796875 -17.808594 L -2.679688 -17.269531 C -2.222656 -16.441406 -1.972656 -15.445312 -1.789062 -14.269531 C -1.496094 -12.382812 -0.355469 -5.015625 -0.0625 -3.125 C 0.121094 -1.953125 0.1875 -0.925781 0 0 L 11.417969 -1.773438 L 11.171875 -4.421875 L 10.964844 -4.390625 C 10.855469 -3.878906 10.265625 -2.511719 8.21875 -2.195312 L 2.921875 -1.375 Z M 0.859375 -14.679688 "/></g></g></g><g fill="#5e17eb" fill-opacity="1"><g transform="translate(183.156655, 108.642017)"><g/></g></g><g fill="#5e17eb" fill-opacity="1"><g transform="translate(193.243094, 108.469689)"><g><path d="M 0 0 L 6.984375 1.03125 C 10.765625 1.589844 13.054688 -0.0507812 13.433594 -2.609375 C 13.800781 -5.097656 12.359375 -6.984375 9.929688 -7.765625 C 12.058594 -8.464844 14.089844 -9.296875 14.457031 -11.785156 C 14.746094 -13.742188 13.199219 -15.714844 9.535156 -16.257812 L 2.550781 -17.289062 C 2.746094 -16.363281 2.6875 -15.335938 2.515625 -14.160156 C 2.234375 -12.269531 1.148438 -4.894531 0.867188 -3.003906 C 0.695312 -1.828125 0.453125 -0.828125 0 0 Z M 9.042969 -7.496094 C 10.386719 -6.710938 11.058594 -4.867188 10.796875 -3.257812 C 10.484375 -1.136719 8.671875 0.457031 5.191406 -0.0585938 L 3.183594 -0.355469 L 3.667969 -3.628906 C 4.035156 -6.117188 6.867188 -6.78125 9.042969 -7.496094 Z M 5.5 -16.027344 L 7.480469 -15.734375 C 10.660156 -15.265625 12.023438 -13.792969 11.785156 -12.179688 C 11.199219 -8.214844 6.257812 -8.730469 4 -5.886719 Z M 5.5 -16.027344 "/></g></g></g><g fill="#5e17eb" fill-opacity="1"><g transform="translate(209.743585, 111.108509)"><g><path d="M 11.46875 3.972656 L 12.492188 1.515625 L 12.296875 1.445312 C 11.960938 1.847656 10.800781 2.777344 8.816406 2.09375 L 3.226562 0.15625 L 5.398438 -6.121094 L 7.820312 -5.28125 C 9.800781 -4.59375 10.136719 -3.144531 10.15625 -2.621094 L 10.351562 -2.554688 C 10.832031 -3.941406 11.3125 -5.328125 11.792969 -6.714844 L 11.59375 -6.785156 C 11.257812 -6.382812 10.097656 -5.453125 8.117188 -6.140625 L 5.695312 -6.976562 L 8.347656 -14.640625 L 13.324219 -12.917969 C 15.304688 -12.230469 15.621094 -10.789062 15.660156 -10.257812 L 15.835938 -10.199219 L 16.550781 -12.761719 L 5.71875 -16.511719 C 5.738281 -15.570312 5.488281 -14.570312 5.101562 -13.445312 C 4.476562 -11.640625 2.035156 -4.597656 1.410156 -2.789062 C 1.023438 -1.667969 0.597656 -0.730469 0 0 Z M 11.46875 3.972656 "/></g></g></g><g fill="#5e17eb" fill-opacity="1"><g transform="translate(224.932184, 116.333161)"><g><path d="M 18.730469 -8.085938 C 17.917969 -7.457031 17.085938 -7.113281 16.398438 -6.824219 L 3.957031 -1.566406 C 2.519531 -0.988281 1.183594 -0.433594 -0.359375 -0.214844 C 4.136719 2.480469 8.632812 5.175781 13.148438 7.882812 L 14.65625 5.6875 L 14.476562 5.582031 C 14.0625 5.90625 12.738281 6.578125 10.9375 5.5 L 4.242188 1.484375 C 5.054688 0.855469 5.886719 0.511719 6.597656 0.234375 L 19.039062 -5.019531 C 20.453125 -5.613281 21.792969 -6.167969 23.332031 -6.386719 C 18.835938 -9.082031 14.339844 -11.777344 9.824219 -14.484375 L 8.320312 -12.289062 L 8.5 -12.183594 C 8.910156 -12.507812 10.238281 -13.175781 12.035156 -12.097656 Z M 18.730469 -8.085938 "/></g></g></g><g fill="#5e17eb" fill-opacity="1"><g transform="translate(242.205786, 126.807536)"><g><path d="M 18.949219 -6.3125 C 15.382812 -9.832031 9.652344 -9.789062 6.132812 -6.222656 C 2.617188 -2.65625 2.65625 3.078125 6.226562 6.59375 C 9.792969 10.113281 15.527344 10.070312 19.042969 6.503906 C 22.558594 2.9375 22.519531 -2.796875 18.949219 -6.3125 Z M 10.386719 7.949219 C 7.035156 7 5.339844 2.746094 6.5625 -1.578125 C 7.765625 -5.886719 11.472656 -8.617188 14.804688 -7.683594 C 18.125 -6.738281 19.835938 -2.464844 18.628906 1.84375 C 17.394531 6.152344 13.707031 8.898438 10.386719 7.949219 Z M 10.386719 7.949219 "/></g></g></g><g fill="#5e17eb" fill-opacity="1"><g transform="translate(257.382885, 142.50209)"><g><path d="M 13.71875 -5.292969 C 14.714844 -5.945312 15.621094 -6.429688 16.542969 -6.640625 L 14.613281 -9.582031 C 14.050781 -8.824219 13.246094 -8.183594 12.25 -7.53125 C 10.652344 -6.484375 4.417969 -2.398438 2.820312 -1.347656 C 1.828125 -0.695312 0.917969 -0.210938 0 0 L 6.335938 9.664062 L 8.648438 8.34375 L 8.535156 8.167969 C 8.023438 8.28125 6.535156 8.308594 5.398438 6.574219 L 2.460938 2.09375 Z M 13.71875 -5.292969 "/></g></g></g><g fill="#5e17eb" fill-opacity="1"><g transform="translate(113.745358, 245.827128)"><g><path d="M 5.734375 6.921875 L 4.984375 6.015625 L 9.3125 2.40625 L 4.0625 3.65625 L 3.53125 3.03125 L 5.734375 -1.90625 L 1.390625 1.6875 L 0.640625 0.765625 L 6.46875 -4.0625 L 7.421875 -2.90625 L 5.140625 2.234375 L 10.609375 0.9375 L 11.5625 2.09375 Z M 5.734375 6.921875 "/></g></g></g><g fill="#5e17eb" fill-opacity="1"><g transform="translate(124.809433, 258.17311)"><g><path d="M 5.5625 2.53125 L 2.671875 0.046875 L 1.015625 0.875 L 0.015625 0.015625 L 7.453125 -3.5625 L 8.453125 -2.703125 L 6.03125 5.1875 L 5 4.296875 Z M 5.953125 1.359375 L 7.0625 -2.125 L 3.78125 -0.5 Z M 5.953125 1.359375 "/></g></g></g><g fill="#5e17eb" fill-opacity="1"><g transform="translate(136.141892, 267.182764)"><g><path d="M 8.625 -2.140625 L 6.578125 -3.421875 L 3.171875 2 L 2.109375 1.328125 L 5.515625 -4.09375 L 3.484375 -5.375 L 4.109375 -6.359375 L 9.25 -3.125 Z M 8.625 -2.140625 "/></g></g></g><g fill="#5e17eb" fill-opacity="1"><g transform="translate(147.164515, 273.60717)"><g><path d="M 7.03125 -5.203125 C 7.519531 -4.984375 7.953125 -4.675781 8.328125 -4.28125 C 8.710938 -3.882812 9.003906 -3.445312 9.203125 -2.96875 L 8.140625 -2.421875 C 8.003906 -2.796875 7.800781 -3.140625 7.53125 -3.453125 C 7.257812 -3.765625 6.945312 -3.992188 6.59375 -4.140625 C 5.90625 -4.441406 5.21875 -4.460938 4.53125 -4.203125 C 3.84375 -3.941406 3.347656 -3.472656 3.046875 -2.796875 C 2.742188 -2.109375 2.726562 -1.425781 3 -0.75 C 3.269531 -0.0703125 3.75 0.414062 4.4375 0.71875 C 5.15625 1.03125 5.921875 1.039062 6.734375 0.75 L 7.09375 1.8125 C 6.582031 2.007812 6.039062 2.101562 5.46875 2.09375 C 4.90625 2.09375 4.390625 1.988281 3.921875 1.78125 C 2.910156 1.332031 2.203125 0.617188 1.796875 -0.359375 C 1.398438 -1.335938 1.421875 -2.328125 1.859375 -3.328125 C 2.285156 -4.304688 3 -4.972656 4 -5.328125 C 5 -5.691406 6.007812 -5.648438 7.03125 -5.203125 Z M 7.03125 -5.203125 "/></g></g></g><g fill="#5e17eb" fill-opacity="1"><g transform="translate(160.236823, 278.844909)"><g><path d="M 7.296875 1.90625 L 6.0625 1.59375 L 6.859375 -1.421875 L 2.984375 -2.4375 L 2.1875 0.578125 L 0.96875 0.25 L 2.890625 -7.0625 L 4.109375 -6.734375 L 3.265625 -3.5625 L 7.140625 -2.546875 L 7.984375 -5.71875 L 9.21875 -5.40625 Z M 7.296875 1.90625 "/></g></g></g><g fill="#5e17eb" fill-opacity="1"><g transform="translate(174.870232, 282.045624)"><g/></g></g><g fill="#5e17eb" fill-opacity="1"><g transform="translate(184.019433, 282.910754)"><g><path d="M 6.1875 -6.375 L 3.78125 -6.390625 L 3.75 0.015625 L 2.484375 0.015625 L 2.515625 -6.390625 L 0.125 -6.40625 L 0.140625 -7.5625 L 6.203125 -7.53125 Z M 6.1875 -6.375 "/></g></g></g><g fill="#5e17eb" fill-opacity="1"><g transform="translate(196.779112, 282.55913)"><g><path d="M 5.71875 -0.8125 L 4.03125 -2.890625 C 3.957031 -2.878906 3.84375 -2.863281 3.6875 -2.84375 L 1.921875 -2.578125 L 2.25 -0.3125 L 0.984375 -0.140625 L -0.078125 -7.625 L 2.953125 -8.0625 C 3.898438 -8.195312 4.671875 -8.078125 5.265625 -7.703125 C 5.859375 -7.328125 6.210938 -6.738281 6.328125 -5.9375 C 6.410156 -5.332031 6.347656 -4.800781 6.140625 -4.34375 C 5.941406 -3.894531 5.597656 -3.539062 5.109375 -3.28125 L 7.15625 -1.015625 Z M 1.765625 -3.703125 L 3.53125 -3.96875 C 4.738281 -4.132812 5.269531 -4.71875 5.125 -5.71875 C 4.988281 -6.6875 4.316406 -7.085938 3.109375 -6.921875 L 1.34375 -6.65625 Z M 1.765625 -3.703125 "/></g></g></g><g fill="#5e17eb" fill-opacity="1"><g transform="translate(210.908696, 280.027644)"><g><path d="M 5.109375 -3.359375 L 1.46875 -2.234375 L 1.28125 -0.390625 L 0.015625 0 L 0.96875 -8.21875 L 2.21875 -8.609375 L 7.59375 -2.34375 L 6.296875 -1.9375 Z M 4.3125 -4.3125 L 1.96875 -7.09375 L 1.578125 -3.46875 Z M 4.3125 -4.3125 "/></g></g></g><g fill="#5e17eb" fill-opacity="1"><g transform="translate(224.634724, 275.262171)"><g><path d="M -2.46875 -7.21875 L 0.3125 -8.59375 C 1.320312 -9.09375 2.316406 -9.1875 3.296875 -8.875 C 4.273438 -8.5625 5.003906 -7.914062 5.484375 -6.9375 C 5.972656 -5.957031 6.046875 -4.984375 5.703125 -4.015625 C 5.359375 -3.046875 4.671875 -2.304688 3.640625 -1.796875 L 0.890625 -0.4375 Z M -0.8125 -6.734375 L 1.53125 -2.015625 L 3.203125 -2.84375 C 3.859375 -3.175781 4.296875 -3.675781 4.515625 -4.34375 C 4.742188 -5.007812 4.6875 -5.679688 4.34375 -6.359375 C 4.007812 -7.035156 3.503906 -7.484375 2.828125 -7.703125 C 2.148438 -7.921875 1.476562 -7.867188 0.8125 -7.546875 Z M -0.8125 -6.734375 "/></g></g></g><g fill="#5e17eb" fill-opacity="1"><g transform="translate(237.634985, 268.158544)"><g><path d="M 1.875 -1.265625 L 0.828125 -0.5625 L -3.40625 -6.828125 L -2.359375 -7.53125 Z M 1.875 -1.265625 "/></g></g></g><g fill="#5e17eb" fill-opacity="1"><g transform="translate(245.556697, 262.506544)"><g><path d="M 5.640625 -5.015625 L 4.703125 -4.1875 L -1.921875 -5.546875 L 1.6875 -1.5 L 0.75 -0.671875 L -4.28125 -6.3125 L -3.34375 -7.140625 L 3.296875 -5.78125 L -0.328125 -9.828125 L 0.609375 -10.65625 Z M 5.640625 -5.015625 "/></g></g></g><g fill="#5e17eb" fill-opacity="1"><g transform="translate(256.469912, 252.045535)"><g><path d="M 1 -7.140625 L 1.6875 -8 L 3.859375 -6.234375 C 3.835938 -5.753906 3.726562 -5.25 3.53125 -4.71875 C 3.34375 -4.195312 3.085938 -3.738281 2.765625 -3.34375 C 2.066406 -2.476562 1.1875 -1.976562 0.125 -1.84375 C -0.925781 -1.707031 -1.867188 -1.976562 -2.703125 -2.65625 C -3.546875 -3.332031 -4.003906 -4.203125 -4.078125 -5.265625 C -4.160156 -6.335938 -3.84375 -7.320312 -3.125 -8.21875 C -2.789062 -8.632812 -2.382812 -8.976562 -1.90625 -9.25 C -1.425781 -9.53125 -0.945312 -9.710938 -0.46875 -9.796875 L -0.1875 -8.640625 C -1.019531 -8.523438 -1.703125 -8.144531 -2.234375 -7.5 C -2.710938 -6.894531 -2.921875 -6.222656 -2.859375 -5.484375 C -2.796875 -4.742188 -2.472656 -4.132812 -1.890625 -3.65625 C -1.296875 -3.175781 -0.628906 -2.984375 0.109375 -3.078125 C 0.847656 -3.171875 1.457031 -3.519531 1.9375 -4.125 C 2.300781 -4.570312 2.535156 -5.132812 2.640625 -5.8125 Z M 1 -7.140625 "/></g></g></g></svg>