<!--?xml version="1.0" encoding="utf-8"?-->
<!-- Svg Vector Icons : http://www.onlinewebfonts.com/icon -->

<svg version="1.1" xmlns="http://www.w3.org/2000/svg" xmlns:xlink="http://www.w3.org/1999/xlink" x="0px" y="0px" viewBox="0 0 256 256" enable-background="new 0 0 256 256" xml:space="preserve">
<metadata> Svg Vector Icons : http://www.onlinewebfonts.com/icon </metadata>
<g><g><path fill="#566b6f" data-title="Layer 0" xs="0" d="M48.7,193.6v-12.4h65.9c0-0.1,0-0.2,0-0.4c0-10.2,2.1-19.8,6-28.6H48.7v-12.4h78.9c12.9-18.3,34.1-30.2,58.2-30.2c1.7,0,3.3,0.1,5,0.2V35.6c0-11.4-9.2-20.7-20.7-20.7H30.7C19.2,15,10,24.2,10,35.7v173.5c0,11.4,9.2,20.7,20.7,20.7h103.5c-9.3-9.8-15.9-22.3-18.4-36.2L48.7,193.6L48.7,193.6z M48.7,57.1h106.8v12.4H48.7V57.1z M48.7,98.5h106.8v12.5H48.7V98.5z"/><path fill="#8db343" data-title="Layer 1" xs="1" d="M185.8,120.6c-33.3,0-60.2,26.9-60.2,60.2c0,33.3,26.9,60.2,60.2,60.2c33.2,0,60.2-27,60.2-60.2C246,147.6,219,120.6,185.8,120.6z M218.4,185.3h-27.6v27.6H177v-27.6h-27.5v-13.8H177v-27.6h13.8v27.6h27.6V185.3z"/></g></g>
</svg>