<!--?xml version="1.0" encoding="utf-8"?-->
<!-- Svg Vector Icons : http://www.onlinewebfonts.com/icon -->

<svg version="1.1" xmlns="http://www.w3.org/2000/svg" xmlns:xlink="http://www.w3.org/1999/xlink" x="0px" y="0px" viewBox="0 0 256 256" enable-background="new 0 0 256 256" xml:space="preserve">
<metadata> Svg Vector Icons : http://www.onlinewebfonts.com/icon </metadata>
<g><g><path fill="#5aab6f" data-title="Layer 0" xs="0" d="M128,10.2C62.8,10.2,10,62.9,10,128c0,65.1,52.8,117.8,118,117.8c65.2,0,118-52.7,118-117.8C246,62.9,193.2,10.2,128,10.2z M192.9,99.8l-76,77.6c-3.5,3.6-9.2,3.6-12.7,0l-41.1-42c-3.5-3.6-3.5-9.4,0-12.9s9.2-3.6,12.7,0l34.8,35.6l69.6-71.1c3.5-3.6,9.2-3.6,12.7,0C196.4,90.4,196.4,96.2,192.9,99.8z"/></g></g>
</svg>