<!--?xml version="1.0" encoding="utf-8"?-->
<!-- Svg Vector Icons : http://www.onlinewebfonts.com/icon -->

<svg version="1.1" xmlns="http://www.w3.org/2000/svg" xmlns:xlink="http://www.w3.org/1999/xlink" x="0px" y="0px" viewBox="0 0 256 256" enable-background="new 0 0 256 256" xml:space="preserve">
<metadata> Svg Vector Icons : http://www.onlinewebfonts.com/icon </metadata>
<g><g><path fill="#327b9a" data-title="Layer 0" xs="0" d="M215.4,54.1c-19.7-19.7-46-30.6-73.9-30.6c-27.9,0-54.2,10.9-73.9,30.6C47.8,73.8,37,100.1,37,128c0,3.6,0.2,7.2,0.6,10.8l-13.7-12.4c-3.4-3.1-8.6-2.8-11.7,0.6c-3.1,3.4-2.8,8.6,0.6,11.7L41,164.3c1.6,1.4,3.6,2.1,5.6,2.1c0.5,0,1.1,0,1.6-0.2c0.3,0,0.5,0,0.8,0c2.3,0,4.6-0.9,6.2-2.8l25.4-28.4c3.1-3.4,2.8-8.6-0.7-11.7c-3.4-3.1-8.6-2.8-11.7,0.7l-13.9,15.5c-0.5-3.8-0.7-7.7-0.7-11.6c0-48.5,39.4-87.9,87.9-87.9c48.5,0,87.9,39.4,87.9,87.9c0,48.5-39.4,87.9-87.9,87.9c-23.2,0-45-8.9-61.6-25.1c-3.3-3.2-8.5-3.2-11.7,0.1c-3.2,3.3-3.2,8.5,0.1,11.7c19.7,19.3,45.6,29.9,73.2,29.9c27.9,0,54.2-10.9,73.9-30.6c19.7-19.8,30.6-46,30.6-73.9C246,100.1,235.1,73.8,215.4,54.1z"/><path fill="#327b9a" data-title="Layer 1" xs="1" d="M136.1,77.1c-4.6,0-8.3,3.7-8.3,8.3v50.1c0,4.6,3.7,8.3,8.3,8.3h50.1c4.6,0,8.3-3.7,8.3-8.3s-3.7-8.3-8.3-8.3h-41.8V85.4C144.4,80.8,140.7,77.1,136.1,77.1z"/></g></g>
</svg>